<svg width="120" height="31" viewBox="0 0 120 31" fill="none" xmlns="http://www.w3.org/2000/svg">
<g filter="url(#filter0_i_3_3)">
<path d="M20.88 29L15.66 15.5C16.14 14.372 16.608 13.244 17.064 12.116C17.52 10.988 17.976 9.872 18.432 8.768C18.912 7.64 19.38 6.512 19.836 5.384C20.316 4.256 20.784 3.128 21.24 2H37.44C37.032 2.84 36.552 3.812 36 4.916C35.448 6.02 34.884 7.136 34.308 8.264C33.756 9.392 33.24 10.436 32.76 11.396C32.28 12.356 31.884 13.136 31.572 13.736C31.284 14.312 31.14 14.6 31.14 14.6C31.14 14.6 31.296 14.948 31.608 15.644C31.92 16.316 32.328 17.204 32.832 18.308C33.336 19.412 33.888 20.612 34.488 21.908C35.088 23.18 35.676 24.44 36.252 25.688C36.828 26.936 37.344 28.04 37.8 29H20.88ZM0.72 29C0.72 27.248 0.72 25.496 0.72 23.744C0.72 21.968 0.72 20.204 0.72 18.452C0.72 16.7 0.72 14.948 0.72 13.196C0.72 11.42 0.72 9.656 0.72 7.904C0.72 6.92 0.72 5.936 0.72 4.952C0.72 3.968 0.72 2.984 0.72 2H15.66C15.66 3.104 15.66 4.208 15.66 5.312C15.66 6.416 15.66 7.52 15.66 8.624C15.66 9.728 15.66 10.832 15.66 11.936C15.66 13.04 15.66 14.144 15.66 15.248C15.66 15.272 15.66 15.308 15.66 15.356C15.66 15.404 15.66 15.452 15.66 15.5C15.66 15.524 15.66 15.548 15.66 15.572C15.66 15.596 15.66 15.632 15.66 15.68C15.66 15.704 15.66 15.728 15.66 15.752C15.66 17.96 15.66 20.168 15.66 22.376C15.66 24.584 15.66 26.792 15.66 29H0.72ZM55.3866 0.919999C59.8026 0.919999 63.4746 1.544 66.4026 2.792C69.3306 4.04 71.5266 5.756 72.9906 7.94C74.4546 10.124 75.1866 12.632 75.1866 15.464C75.1866 17 74.9586 18.488 74.5026 19.928C74.0466 21.344 73.3266 22.676 72.3426 23.924C71.3586 25.148 70.0866 26.228 68.5266 27.164C66.9666 28.076 65.0946 28.784 62.9106 29.288C60.7506 29.816 58.2426 30.08 55.3866 30.08C53.3466 30.08 51.4746 29.936 49.7706 29.648C48.0906 29.384 46.5666 29.012 45.1986 28.532C43.8306 28.028 42.6186 27.428 41.5626 26.732C40.5306 26.036 39.6306 25.268 38.8626 24.428C38.1186 23.564 37.4946 22.652 36.9906 21.692C36.5106 20.732 36.1506 19.724 35.9106 18.668C35.6946 17.612 35.5866 16.544 35.5866 15.464C35.5866 14.048 35.7666 12.704 36.1266 11.432C36.5106 10.16 37.0626 8.984 37.7826 7.904C38.5266 6.824 39.4386 5.864 40.5186 5.024C41.6226 4.16 42.9066 3.428 44.3706 2.828C45.8346 2.204 47.4786 1.736 49.3026 1.424C51.1506 1.088 53.1786 0.919999 55.3866 0.919999ZM55.4226 12.368C54.5826 12.368 53.8626 12.464 53.2626 12.656C52.6866 12.824 52.2186 13.064 51.8586 13.376C51.5226 13.664 51.2706 14 51.1026 14.384C50.9586 14.744 50.8866 15.116 50.8866 15.5C50.8866 16.004 51.0306 16.496 51.3186 16.976C51.6066 17.456 52.0866 17.852 52.7586 18.164C53.4306 18.476 54.3186 18.632 55.4226 18.632C56.0706 18.632 56.6346 18.572 57.1146 18.452C57.6186 18.332 58.0386 18.176 58.3746 17.984C58.7346 17.768 59.0226 17.528 59.2386 17.264C59.4786 16.976 59.6466 16.688 59.7426 16.4C59.8386 16.088 59.8866 15.776 59.8866 15.464C59.8866 15.104 59.8026 14.744 59.6346 14.384C59.4906 14.024 59.2506 13.7 58.9146 13.412C58.5786 13.1 58.1226 12.848 57.5466 12.656C56.9706 12.464 56.2626 12.368 55.4226 12.368ZM119.651 2C119.651 3.8 119.651 5.6 119.651 7.4C119.651 9.2 119.651 11 119.651 12.8C119.651 14.6 119.651 16.4 119.651 18.2C119.651 20 119.651 21.8 119.651 23.6C119.651 25.4 119.651 27.2 119.651 29H105.791C105.791 26.504 105.791 24.008 105.791 21.512C105.791 19.016 105.791 16.52 105.791 14.024C105.791 14 105.779 13.988 105.755 13.988C105.755 13.988 105.743 13.988 105.719 13.988C105.719 13.988 105.719 14 105.719 14.024L102.191 29H93.0108C92.4108 26.504 91.8228 24.02 91.2468 21.548C90.6708 19.076 90.0828 16.604 89.4828 14.132C89.4828 14.108 89.4708 14.096 89.4468 14.096C89.4468 14.096 89.4348 14.096 89.4108 14.096C89.4108 14.096 89.4108 14.108 89.4108 14.132C89.4108 16.604 89.4108 19.076 89.4108 21.548C89.4108 24.02 89.4108 26.504 89.4108 29H76.2708C76.2708 27.2 76.2708 25.4 76.2708 23.6C76.2708 21.776 76.2708 19.964 76.2708 18.164C76.2708 16.34 76.2708 14.528 76.2708 12.728C76.2708 10.904 76.2708 9.092 76.2708 7.292C76.2708 6.404 76.2708 5.528 76.2708 4.664C76.2708 3.776 76.2708 2.888 76.2708 2H95.4588C95.8188 3.488 96.1668 4.976 96.5028 6.464C96.8388 7.928 97.1748 9.404 97.5108 10.892C97.8708 12.38 98.2188 13.868 98.5548 15.356C98.5548 15.38 98.5548 15.404 98.5548 15.428C98.5788 15.428 98.5908 15.428 98.5908 15.428C98.6148 15.404 98.6268 15.38 98.6268 15.356L101.507 2H119.651Z" fill="white"/>
</g>
<defs>
<filter id="filter0_i_3_3" x="0.720001" y="0.919983" width="118.931" height="29.16" filterUnits="userSpaceOnUse" color-interpolation-filters="sRGB">
<feFlood flood-opacity="0" result="BackgroundImageFix"/>
<feBlend mode="normal" in="SourceGraphic" in2="BackgroundImageFix" result="shape"/>
<feColorMatrix in="SourceAlpha" type="matrix" values="0 0 0 0 0 0 0 0 0 0 0 0 0 0 0 0 0 0 127 0" result="hardAlpha"/>
<feOffset/>
<feGaussianBlur stdDeviation="3.8"/>
<feComposite in2="hardAlpha" operator="arithmetic" k2="-1" k3="1"/>
<feColorMatrix type="matrix" values="0 0 0 0 0 0 0 0 0 0.145098 0 0 0 0 0.160784 0 0 0 1 0"/>
<feBlend mode="normal" in2="shape" result="effect1_innerShadow_3_3"/>
</filter>
</defs>
</svg>
